<svg xmlns="http://www.w3.org/2000/svg" viewBox="0 0 1920 512"><defs><style>.cls-1,.cls-3{fill:#99c1e0;}.cls-2{fill:#609bc4;}.cls-3{font-size:71.91px;font-family:GoodTimesBk-Regular, Good Times;letter-spacing:-0.04em;}.cls-4{letter-spacing:-0.1em;}.cls-5{letter-spacing:-0.27em;}.cls-6{letter-spacing:-0.26em;}</style></defs><g id="Layer_1" data-name="Layer 1"><path class="cls-1" d="M640.83,168.86H551.22c-46.46,0-80.59,31.27-80.59,78.39,0,46.46,34.13,81.69,80.59,81.69h89.61V288.2H551.22c-23.34,0-39.85-16.07-39.85-39s17-39.85,39.85-39.85h146.2V328.94h40.74V209.38H795V168.86Z"/><path class="cls-1" d="M871.82,328.94c-46.46,0-80.59-35.23-80.59-81.69,0-47.12,34.13-78.39,80.59-78.39h40.29c47.78,0,80.81,31.93,80.81,78.39S959,328.94,912.11,328.94Zm40.29-40.74c23.78,0,40.29-16.29,40.29-39,0-22.9-16.73-39.85-40.29-39.85H871.82c-22.9,0-39.86,17-39.86,39.85s16.52,39,39.86,39Z"/><path class="cls-1" d="M1139.34,328.94l-37.43-42.72h-39.63V252.09h57.47c13.43,0,21.57-8.36,21.57-21.36,0-13.21-8.14-21.35-21.57-21.35h-77.07V328.94h-40.51V168.86h117.58c38.53,0,61.43,23.56,61.43,60.33,0,26.21-12.33,43.82-31.93,51.75l47.78,48Z"/><path class="cls-1" d="M1199.46,328.94V168.86h40.73V328.94Z"/><path class="cls-1" d="M1273.66,328.94c-11.67,0-22.9-6.83-22.9-20.48,0-5.95,2.86-11.67,8.37-16.95l88.07-83.89H1253V168.86h138.28c11.67,0,22.9,6.83,22.9,20.48,0,5.95-2.87,11.67-8.37,16.95l-88.07,83.89h98.42v38.76Z"/><path class="cls-1" d="M1424.93,328.94V168.86h147.74v40.52H1465.44V288.2h107.67v40.74ZM1485,262.88v-30.6h81.47v30.6Z"/><path class="cls-2" d="M490.31,328.94,463.79,284H388.43l22.89-38.8H440.9l-29-49.13L333.72,328.94H275.1L389,139.69c6.14-10.05,13.67-16.47,24.84-16.47,10.89,0,18.42,6.42,24.56,16.47L552.28,328.94Z"/><text class="cls-3" transform="translate(385.3 411.27)">RETHINK <tspan class="cls-4" x="370.74" y="0">J</tspan><tspan class="cls-5" x="414.17" y="0">A</tspan><tspan class="cls-6" x="465.22" y="0">V</tspan><tspan x="516.85" y="0">ASCRIPT APPS</tspan></text></g></svg>