<svg xmlns="http://www.w3.org/2000/svg" viewBox="0 0 1920 512"><defs><style>.cls-1{fill:#99c1e0;}.cls-2{fill:#609bc4;}</style></defs><g id="Layer_1" data-name="Layer 1"><path class="cls-1" d="M640.83,168.86H551.22c-46.46,0-80.59,31.27-80.59,78.39,0,46.46,34.13,81.69,80.59,81.69h89.61V288.2H551.22c-23.34,0-39.85-16.07-39.85-39s17-39.85,39.85-39.85h146.2V328.94h40.74V209.38H795V168.86Z"/><path class="cls-1" d="M871.82,328.94c-46.46,0-80.59-35.23-80.59-81.69,0-47.12,34.13-78.39,80.59-78.39h40.29c47.78,0,80.81,31.93,80.81,78.39S959,328.94,912.11,328.94Zm40.29-40.74c23.78,0,40.29-16.29,40.29-39,0-22.9-16.73-39.85-40.29-39.85H871.82c-22.9,0-39.86,17-39.86,39.85s16.52,39,39.86,39Z"/><path class="cls-1" d="M1139.34,328.94l-37.43-42.72h-39.63V252.09h57.47c13.43,0,21.57-8.36,21.57-21.36,0-13.21-8.14-21.35-21.57-21.35h-77.07V328.94h-40.51V168.86h117.58c38.53,0,61.43,23.56,61.43,60.33,0,26.21-12.33,43.82-31.93,51.75l47.78,48Z"/><path class="cls-1" d="M1199.46,328.94V168.86h40.73V328.94Z"/><path class="cls-1" d="M1273.66,328.94c-11.67,0-22.9-6.83-22.9-20.48,0-5.95,2.86-11.67,8.37-16.95l88.07-83.89H1253V168.86h138.28c11.67,0,22.9,6.83,22.9,20.48,0,5.95-2.87,11.67-8.37,16.95l-88.07,83.89h98.42v38.76Z"/><path class="cls-1" d="M1424.93,328.94V168.86h147.74v40.52H1465.44V288.2h107.67v40.74ZM1485,262.88v-30.6h81.47v30.6Z"/><path class="cls-2" d="M490.31,328.94,463.79,284H388.43l22.89-38.8H440.9l-29-49.13L333.72,328.94H275.1L389,139.69c6.14-10.05,13.67-16.47,24.84-16.47,10.89,0,18.42,6.42,24.56,16.47L552.28,328.94Z"/><path class="cls-1" d="M440.66,411.27l-13.8-14.81H403.92V390h23.37c7.62,0,11.5-4.24,11.5-12.29S434.55,366,427.29,366H397.17v45.29h-7V359h37.1c11.58,0,18.41,7.26,18.41,18.7,0,8.7-4,14.95-11,17.54l15.89,16Z"/><path class="cls-1" d="M453,411.27V359h45.87v7H460V404.3h39v7Zm13.73-23.36v-6.47H497v6.47Z"/><path class="cls-1" d="M521.92,411.27V366H501.43v-7h47.95v7H528.89v45.29Z"/><path class="cls-1" d="M553.13,411.63V359h7v52.63Zm43.28,0V387.91H566.86v-6.47h29.55V359h7.05v52.63Z"/><path class="cls-1" d="M610.72,411.27V359h7v52.27Z"/><path class="cls-1" d="M631.43,369.5v41.77h-6.69v-48.6c0-2.66,1.44-4.31,3.67-4.31a4.7,4.7,0,0,1,3.31,1.65l39.54,40.48V358.72H678v49c0,2.66-1.51,4.24-3.52,4.24a5.26,5.26,0,0,1-3.6-1.8Z"/><path class="cls-1" d="M684.5,411.27V359h7v52.27Zm43.64,0L695.57,387.4a3.33,3.33,0,0,1-1.51-3,3.43,3.43,0,0,1,1.8-3.23L727.21,359h11.28l-36,25.31,37.1,27Z"/><path class="cls-1" d="M758.13,411.27v-7h18.76c13.3,0,18.84-5.25,18.84-16.83V359h7v28.47c0,16.18-8,23.8-25.89,23.8Z"/><path class="cls-1" d="M860.23,411.27l-8.34-14H824.42l3.45-6h20.42l-13.8-23.15-25.67,43.21h-8l30.48-50.68c.87-1.44,1.87-2.31,3.45-2.31s2.52.87,3.38,2.31l30.49,50.68Z"/><path class="cls-1" d="M851.89,359h8.56L886,402.29,911.64,359h8.05l-30.48,50.76a4.13,4.13,0,0,1-3.45,2.23,4,4,0,0,1-3.46-2.23Z"/><path class="cls-1" d="M962.91,411.27l-8.34-14H927.1l3.45-6H951l-13.8-23.15L911.5,411.27h-8L934,360.59c.86-1.44,1.86-2.31,3.45-2.31s2.51.87,3.38,2.31l30.48,50.68Z"/><path class="cls-1" d="M974.63,411.27v-7h38.9c5.82,0,8.92-3.38,8.92-8.27,0-5.39-3.17-8.12-8.92-8.12H989.08c-9.41,0-15.24-6.26-15.24-14.6S979.24,359,989.23,359h37.31v7H989.23c-5.18,0-8.13,3.16-8.13,7.76s3.1,7.7,8.06,7.7h24.37c10.14,0,15.53,5,15.53,14.88,0,8.56-5.1,14.95-15.53,14.95Z"/><path class="cls-1" d="M1058,411.27c-14.38,0-25-11.5-25-26.67,0-15.39,10.57-25.6,25-25.6h27.83v7H1058c-10.35,0-18,7.76-18,19s7.55,19.34,18,19.34h27.83v7Z"/><path class="cls-1" d="M1141.45,411.27l-13.81-14.81h-22.93V390h23.37c7.62,0,11.5-4.24,11.5-12.29s-4.24-11.72-11.5-11.72H1098v45.29h-7V359h37.1c11.57,0,18.4,7.26,18.4,18.7,0,8.7-4,14.95-11,17.54l15.89,16Z"/><path class="cls-1" d="M1154.32,411.27V359h7v52.27Z"/><path class="cls-1" d="M1182.29,396.32v-6.76h22.58c7.41,0,11.72-4.82,11.72-11.86S1212.28,366,1204.87,366h-29.34v45.29h-7V359h36.31c11.72,0,18.55,7.19,18.55,18.48s-6.83,18.84-18.55,18.84Z"/><path class="cls-1" d="M1245,411.27V366H1224.5v-7h48v7H1252v45.29Z"/><path class="cls-1" d="M1349.83,411.27l-8.34-14H1314l3.45-6h20.42l-13.8-23.15-25.67,43.21h-8l30.48-50.68c.87-1.44,1.87-2.31,3.45-2.31s2.52.87,3.38,2.31l30.49,50.68Z"/><path class="cls-1" d="M1375.28,396.32v-6.76h22.58c7.41,0,11.72-4.82,11.72-11.86S1405.27,366,1397.86,366h-29.33v45.29h-7V359h36.31c11.72,0,18.55,7.19,18.55,18.48s-6.83,18.84-18.55,18.84Z"/><path class="cls-1" d="M1434.32,396.32v-6.76h22.57c7.41,0,11.72-4.82,11.72-11.86S1464.3,366,1456.89,366h-29.33v45.29h-7V359h36.31c11.72,0,18.55,7.19,18.55,18.48s-6.83,18.84-18.55,18.84Z"/><path class="cls-1" d="M1479.62,411.27v-7h38.9c5.82,0,8.91-3.38,8.91-8.27,0-5.39-3.16-8.12-8.91-8.12h-24.45c-9.42,0-15.24-6.26-15.24-14.6s5.39-14.31,15.38-14.31h37.32v7h-37.32c-5.17,0-8.12,3.16-8.12,7.76s3.09,7.7,8.05,7.7h24.38c10.13,0,15.53,5,15.53,14.88,0,8.56-5.11,14.95-15.53,14.95Z"/></g></svg>